HIERARCHY
ROOT Hips
{
	OFFSET -14.64140 90.27770 -84.91600
	CHANNELS 6 Xposition Yposition Zposition Zrotation Xrotation Yrotation
	JOINT Spine
	{
		OFFSET 0.00000 13.20850 -1.60436
		CHANNELS 3 Zrotation Xrotation Yrotation
		JOINT Spine1
		{
			OFFSET 0.00000 8.61716 0.00000
			CHANNELS 3 Zrotation Xrotation Yrotation
			JOINT Spine2
			{
				OFFSET 0.00000 8.61717 0.00000
				CHANNELS 3 Zrotation Xrotation Yrotation
				JOINT Spine3
				{
					OFFSET 0.00000 8.61717 0.00000
					CHANNELS 3 Zrotation Xrotation Yrotation
					JOINT Neck
					{
						OFFSET 0.00000 11.07920 1.10792
						CHANNELS 3 Zrotation Xrotation Yrotation
						JOINT Neck1
						{
							OFFSET 0.00000 7.08032 0.00000
							CHANNELS 3 Zrotation Xrotation Yrotation
							JOINT Head
							{
								OFFSET 0.00000 7.08031 0.00000
								CHANNELS 3 Zrotation Xrotation Yrotation
								End site
								{
									OFFSET 0.00000 0.00000 0.00000
								}
							}
						}
					}
					JOINT RightShoulder
					{
						OFFSET -0.01000 7.91373 5.19711
						CHANNELS 3 Zrotation Xrotation Yrotation
						JOINT RightArm
						{
							OFFSET -18.41580 0.00000 0.00000
							CHANNELS 3 Zrotation Xrotation Yrotation
							JOINT RightForeArm
							{
								OFFSET -29.11090 0.00000 0.00000
								CHANNELS 3 Zrotation Xrotation Yrotation
								JOINT RightHand
								{
									OFFSET -24.65040 0.00000 0.00000
									CHANNELS 3 Zrotation Xrotation Yrotation
									JOINT RightHandThumb1
									{
										OFFSET -5.35114 -0.85590 3.97906
										CHANNELS 3 Zrotation Xrotation Yrotation
										JOINT RightHandThumb2
										{
											OFFSET -4.52789 0.00000 0.00000
											CHANNELS 3 Zrotation Xrotation Yrotation
											JOINT RightHandThumb3
											{
												OFFSET -2.46976 0.00000 0.00000
												CHANNELS 3 Zrotation Xrotation Yrotation
												End site
												{
													OFFSET 0.00000 0.00000 0.00000
												}
											}
										}
									}
									JOINT RightHandIndex1
									{
										OFFSET -14.26970 0.00000 2.88139
										CHANNELS 3 Zrotation Xrotation Yrotation
										JOINT RightHandIndex2
										{
											OFFSET -5.48836 0.00000 0.00000
											CHANNELS 3 Zrotation Xrotation Yrotation
											JOINT RightHandIndex3
											{
												OFFSET -3.01859 0.00000 0.00000
												CHANNELS 3 Zrotation Xrotation Yrotation
												End site
												{
													OFFSET 0.00000 0.00000 0.00000
												}
											}
										}
									}
									JOINT RightHandMiddle1
									{
										OFFSET -14.26970 0.00000 -0.09147
										CHANNELS 3 Zrotation Xrotation Yrotation
										JOINT RightHandMiddle2
										{
											OFFSET -6.17441 0.00000 0.00000
											CHANNELS 3 Zrotation Xrotation Yrotation
											JOINT RightHandMiddle3
											{
												OFFSET -3.56743 0.00000 0.00000
												CHANNELS 3 Zrotation Xrotation Yrotation
												End site
												{
													OFFSET 0.00000 0.00000 0.00000
												}
											}
										}
									}
									JOINT RightHandRing1
									{
										OFFSET -12.69180 0.00000 -3.06433
										CHANNELS 3 Zrotation Xrotation Yrotation
										JOINT RightHandRing2
										{
											OFFSET -5.62556 0.00000 0.00000
											CHANNELS 3 Zrotation Xrotation Yrotation
											JOINT RightHandRing3
											{
												OFFSET -3.56744 0.00000 0.00000
												CHANNELS 3 Zrotation Xrotation Yrotation
												End site
												{
													OFFSET 0.00000 0.00000 0.00000
												}
											}
										}
									}
									JOINT RightHandPinky1
									{
										OFFSET -11.11390 0.00000 -6.03719
										CHANNELS 3 Zrotation Xrotation Yrotation
										JOINT RightHandPinky2
										{
											OFFSET -4.52789 0.00000 0.00000
											CHANNELS 3 Zrotation Xrotation Yrotation
											JOINT RightHandPinky3
											{
												OFFSET -2.46976 0.00000 0.00000
												CHANNELS 3 Zrotation Xrotation Yrotation
												End site
												{
													OFFSET 0.00000 0.00000 0.00000
												}
											}
										}
									}
								}
							}
						}
					}
					JOINT LeftShoulder
					{
						OFFSET 0.01000 7.91373 5.19711
						CHANNELS 3 Zrotation Xrotation Yrotation
						JOINT LeftArm
						{
							OFFSET 18.41580 0.00000 0.00000
							CHANNELS 3 Zrotation Xrotation Yrotation
							JOINT LeftForeArm
							{
								OFFSET 29.11090 0.00000 0.00000
								CHANNELS 3 Zrotation Xrotation Yrotation
								JOINT LeftHand
								{
									OFFSET 24.65040 0.00000 0.00000
									CHANNELS 3 Zrotation Xrotation Yrotation
									JOINT LeftHandThumb1
									{
										OFFSET 5.35114 -0.85590 3.97906
										CHANNELS 3 Zrotation Xrotation Yrotation
										JOINT LeftHandThumb2
										{
											OFFSET 4.52789 0.00000 0.00000
											CHANNELS 3 Zrotation Xrotation Yrotation
											JOINT LeftHandThumb3
											{
												OFFSET 2.46977 0.00000 0.00000
												CHANNELS 3 Zrotation Xrotation Yrotation
												End site
												{
													OFFSET 0.00000 0.00000 0.00000
												}
											}
										}
									}
									JOINT LeftHandIndex1
									{
										OFFSET 14.26970 0.00000 2.88139
										CHANNELS 3 Zrotation Xrotation Yrotation
										JOINT LeftHandIndex2
										{
											OFFSET 5.48836 0.00000 0.00000
											CHANNELS 3 Zrotation Xrotation Yrotation
											JOINT LeftHandIndex3
											{
												OFFSET 3.01859 0.00000 0.00000
												CHANNELS 3 Zrotation Xrotation Yrotation
												End site
												{
													OFFSET 0.00000 0.00000 0.00000
												}
											}
										}
									}
									JOINT LeftHandMiddle1
									{
										OFFSET 14.26970 0.00000 -0.09147
										CHANNELS 3 Zrotation Xrotation Yrotation
										JOINT LeftHandMiddle2
										{
											OFFSET 6.17440 0.00000 0.00000
											CHANNELS 3 Zrotation Xrotation Yrotation
											JOINT LeftHandMiddle3
											{
												OFFSET 3.56744 0.00000 0.00000
												CHANNELS 3 Zrotation Xrotation Yrotation
												End site
												{
													OFFSET 0.00000 0.00000 0.00000
												}
											}
										}
									}
									JOINT LeftHandRing1
									{
										OFFSET 12.69180 0.00000 -3.06433
										CHANNELS 3 Zrotation Xrotation Yrotation
										JOINT LeftHandRing2
										{
											OFFSET 5.62556 0.00000 0.00000
											CHANNELS 3 Zrotation Xrotation Yrotation
											JOINT LeftHandRing3
											{
												OFFSET 3.56744 0.00000 0.00000
												CHANNELS 3 Zrotation Xrotation Yrotation
												End site
												{
													OFFSET 0.00000 0.00000 0.00000
												}
											}
										}
									}
									JOINT LeftHandPinky1
									{
										OFFSET 11.11390 0.00000 -6.03719
										CHANNELS 3 Zrotation Xrotation Yrotation
										JOINT LeftHandPinky2
										{
											OFFSET 4.52789 0.00000 0.00000
											CHANNELS 3 Zrotation Xrotation Yrotation
											JOINT LeftHandPinky3
											{
												OFFSET 2.46976 0.00000 0.00000
												CHANNELS 3 Zrotation Xrotation Yrotation
												End site
												{
													OFFSET 0.00000 0.00000 0.00000
												}
											}
										}
									}
								}
							}
						}
					}
					JOINT pCube4
					{
						OFFSET 0.00000 10.91090 1.10792
						CHANNELS 3 Zrotation Xrotation Yrotation
						End site
						{
							OFFSET 0.00000 0.00000 0.00000
						}
					}
				}
			}
		}
	}
	JOINT RightUpLeg
	{
		OFFSET -9.98441 0.00000 0.00000
		CHANNELS 3 Zrotation Xrotation Yrotation
		JOINT RightLeg
		{
			OFFSET 0.00000 -42.11790 0.00000
			CHANNELS 3 Zrotation Xrotation Yrotation
			JOINT RightFoot
			{
				OFFSET 0.00000 -45.00020 -0.00001
				CHANNELS 3 Zrotation Xrotation Yrotation
				JOINT RightForeFoot
				{
					OFFSET 0.00000 -3.74820 0.00000
					CHANNELS 3 Zrotation Xrotation Yrotation
					JOINT RightToeBase
					{
						OFFSET 0.00000 0.06325 14.43120
						CHANNELS 3 Zrotation Xrotation Yrotation
						End site
						{
							OFFSET 0.00000 0.00000 0.00000
						}
					}
				}
			}
		}
	}
	JOINT LeftUpLeg
	{
		OFFSET 9.98441 0.00000 0.00000
		CHANNELS 3 Zrotation Xrotation Yrotation
		JOINT LeftLeg
		{
			OFFSET 0.00000 -42.11800 0.00000
			CHANNELS 3 Zrotation Xrotation Yrotation
			JOINT LeftFoot
			{
				OFFSET 0.00000 -45.00070 0.00000
				CHANNELS 3 Zrotation Xrotation Yrotation
				JOINT LeftForeFoot
				{
					OFFSET 0.00000 -3.74824 0.00000
					CHANNELS 3 Zrotation Xrotation Yrotation
					JOINT LeftToeBase
					{
						OFFSET 0.00000 0.06325 14.43110
						CHANNELS 3 Zrotation Xrotation Yrotation
						End site
						{
							OFFSET 0.00000 0.00000 0.00000
						}
					}
				}
			}
		}
	}
}
MOTION
Frames: 4
Frame Time: 0.050000
-0.0010562772297334315 -0.026516067479960295 0.04514430217727597 -0.04674214117766837 0.0412915883914221 -0.022277575465096816 -2.5808140297312376 0.9620188662619921 -0.7589935627153269 -1.037826781453816 3.7942382820649168 0.4096058716302891 -1.2324408232946815 -1.6794671633868856 -0.5946341971615485 0.16372329623474852 0.4588937404599371 -0.7491360793904227 -0.03080214768913592 12.751164271528172 -0.3304488405364195 0.0747714616220583 -0.3400337004199365 -2.8906735123110487 0.324973933899352 -15.657244238689763 -0.1808900083082148 -4.5204927833957855 1.669527084428416 -13.953959536438486 67.89236119770317 21.833889967235965 9.638429239523226 5.436942509455258 2.0987088902558666 69.97799697854094 15.501848050434578 -0.2592293809669021 -2.31439585341545 4.493581666759024 -0.1649493837524391 -1.561892297799189 0.0037097796814215753 -0.01082281307034401 -56.234583887374065 0.03651351694225595 0.011871397285780332 -56.246713396418464 -38.749267266957354 0.014482657067456372 -0.04520627163265021 0.009987116047732426 0.03772226645899127 0.04900393456932897 0.04000365960001727 0.0347647271027839 0.04368510847229351 -36.68281084060051 -0.00986699084063025 -0.01178937119561273 0.022003685432949786 -0.016652866134310756 -0.005736994885569735 -0.0012871348847688898 0.03159969439515977 -0.018697187671805653 -19.73632243660689 0.006069454791203974 0.014839486136810177 0.000791998470887777 0.009682472518575359 0.03216623377338349 -0.022220940516848864 0.04522846575357639 0.0321670273200993 24.088364384629443 0.03730527838613005 0.012088934181445726 28.834755246783903 0.021849313359222067 -0.013202524483777525 28.82749792107669 -0.04603349320969187 -0.011030850209353352 5.224801180389144 1.2089606049038029 12.789374772480532 -67.642689802529 30.795865802224032 -9.603924408235473 -13.39742138950642 0.5813879122930486 -69.72254450025291 -9.096076613960053 -0.18480578102699716 1.5727196623055495 -0.44919321116989874 0.10703008633289765 -8.128029086267112 0.03931069790433885 -0.027345125020060274 44.56443566649616 0.027964843071679325 0.047108939317682785 44.56830056685496 12.422847414077467 -0.02580144104406345 0.01136302098791702 0.00457693875578812 0.04480580746939891 0.023308913312976035 0.010734185676871011 -0.01850549985991004 0.026477876001307694 11.134837087380527 -0.002920275894345182 -0.046129525619171254 0.01065939946278539 0.046742658568297554 0.015537937979742981 0.02304841627187823 0.024600021442491876 -0.02378671116712904 4.738226780653959 -0.013405121596852664 -0.012339479116554924 0.006626833136728725 -0.03688374412644103 -0.030139715858030068 0.023608929476251234 0.03708960528449889 0.02735849593392185 -5.567840955970174 0.0421864102630216 -0.04027816577059028 -6.768772296624643 -0.03241958697021316 0.015453174300479393 -6.701796235572381 0.005094792493288363 3.52387201969761e-05 -0.04055398028125677 -0.045142766831580805 -0.04307227708114408 8.00021692931754 3.4800976923684583 -19.265166256480622 0.0011277317817334626 10.38055748682243 0.003210354089949444 -5.617186391071996 -15.690192769950112 3.144620625440587 -0.026631256329415962 0.02441597709019233 -0.0379027763795175 0.007180130654221862 4.64905279017488 -0.008996973197671487 12.442196385203196 -8.233519192020323 6.926170474680097 -0.026375208729845303 46.350101488159844 0.004260823423704287 -4.329731478230791 -14.77167984207676 -3.8006383561091206 -0.004617720514296276 0.022947294019193994 0.017769128227642938 -0.018412960329302702 -10.771349885056006 0.03602970169084906 
0.003553313398968181 -0.004985439695671223 -0.014458818373399133 0.01236300226489014 -0.048273807080843355 0.032687914008499165 -2.7545799576383727 0.9964753216350879 -0.7918172383549883 -1.0677170772816287 3.8412120992410452 0.43516680880306813 -1.2428442510055941 -1.676394423990386 -0.6169996960445567 0.038370678097194626 0.5245836803586306 -0.7720925149519 -0.04850129731936372 12.67218403611018 -0.23303067241701614 0.12504716726038684 -0.3496486758995183 -2.6171476343340063 0.3076870696654921 -15.581891764686457 -0.24945722288187028 -4.48412928097226 1.6541625975707939 -13.997018012918227 67.61856040894047 21.804268731310277 9.393522013918462 4.010239026264584 1.8258582464813993 71.20962200544966 15.787999073420192 -0.2492940434390935 -2.417276352997779 4.512062048874835 -0.13651800192348668 -1.61030678028504 -0.04900045608000292 -0.021836256693464427 -56.24422841804743 0.023404105280683152 0.002348362214838245 -56.28046938456843 -38.742739085685116 0.024152554418581728 -0.017470502805037497 0.024625279647835452 0.012144917822696322 -0.03784085668208617 -0.01830213247231225 -0.00475530511908025 0.03682435439008475 -36.72953756966551 -0.04983769782284092 0.010120695818295994 -0.039115908676829195 -0.04546837047854684 0.04110662329196753 -0.029276241861905746 -0.02113914703429459 0.0370694137275994 -19.722226045048394 -0.046819206588648785 -0.005052814427052673 0.005116022161805416 0.039460305984757006 0.010680047264005278 0.03163886445080269 -0.032442646112018386 -0.02101781793358593 24.03897091978663 -0.018558162070447592 -0.031383956061591896 28.885936509739082 0.011216633424557405 0.026273583143947267 28.850287683047686 0.027342790802802497 0.04815745065040172 5.2423215957442215 1.2117435766650495 12.820045973755775 -67.49290250140335 30.64575850915705 -9.573701882367601 -11.862778096122987 -0.06896986006739295 -69.72564013101515 -9.17705019091314 -0.038129527586199134 1.4904965238869914 -0.4748651576149661 0.04395146890213163 -8.103794583405517 0.04008155255359998 -0.024368361574817744 44.581068701254345 -0.034959680444148114 -0.02826433415508521 44.52458087208481 12.411115830010829 0.023851103208111724 -0.02664011457937442 0.007391221712859368 0.01481056455728777 0.027238555564981903 0.03566160261854738 -0.02399684607563151 -0.042721738393934804 11.093003870340354 0.038122095801709506 -0.04568395001872425 0.04608747117288629 -0.006275732687123862 -0.000765251034629247 -0.031725134158984244 -0.006375119639977055 0.009067032196496723 4.750112203594737 -0.01883614463632415 0.024767859249607324 -0.027037748032194733 -0.04160721744800211 0.009142135208510958 0.0215988206008208 -0.0192898928040458 -0.011784691117800056 -5.625968334710011 -0.0021010323867929953 0.01135307248903547 -6.731011348945683 0.04595485012839948 -0.021555707193250704 -6.726417397694118 -0.003489576926322899 -0.020813550624607786 0.03772209615849588 -0.046235177843111375 -0.04229977553571101 8.042305350319975 3.501842716085973 -19.227076073649048 0.007630501040400531 10.369654602165097 0.02237111105969937 -5.648217995459954 -15.626775665530575 3.2235072423669155 0.03962492182793061 -0.0252479561448618 0.0012353075621728666 0.0399785833345992 4.7200930420272265 -0.03499616802919416 12.44647086402312 -8.210447009105637 6.872798671828923 0.007575451739631134 46.35929843222545 0.024813728516448932 -4.351795966330595 -14.769062311485518 -3.820004261349054 -0.03927805926951046 0.009264833014113301 0.014411112858238078 -0.036762155806290726 -10.726689199682605 0.04333401210746586 
-0.011727309780437921 -0.04830821138156787 0.008169078912645168 0.04725365320552745 0.04246783549255957 0.021434420314450534 -2.8890912871276178 0.9707894534348223 -0.7669960585301905 -1.0788541393161892 3.8084974849226034 0.36134868525124764 -1.227951165625945 -1.6942388810141467 -0.5917993245665657 -0.03695995349059485 0.43300007907540433 -0.8039022869069212 -0.008201971949357272 12.596528686180575 -0.10368027588837705 0.14108187218101975 -0.33118845701623845 -2.2248667396087485 0.2531290794951201 -15.558096288884208 -0.15779667454253088 -4.566376804956808 1.7231278484814587 -13.963671856914244 67.35320378050127 21.96171340007119 9.324017015901607 2.167125318481694 1.5777375942516991 71.82842439177877 16.17908261146947 -0.2781999098941102 -2.579636277999826 4.5004671002855385 -0.09475644584638818 -1.5807846489415018 -0.0353118495193587 -0.0016923368286724863 -56.21967740151547 0.01929233785901542 -0.04413403508866417 -56.203785668374564 -38.76011587008921 0.04343429219132651 -0.03347972366707541 -0.0029286147918680455 -0.00021384866167630992 0.04717378101577962 0.04679367505934895 0.04057863586908778 0.0007251868889290619 -36.72236751992465 0.015418647460846558 -0.0041928283180521705 -0.018807652623907732 0.009961158815669877 0.02594169960376425 -0.015680874201798117 -0.016806923066692788 -0.006035214878720694 -19.807108873158253 -0.02689251415430908 -0.03114076286014874 -0.047107019813261326 0.019081355385919617 0.014808489315889217 -0.0010511970337007852 -0.02789952057212149 -0.02310709762828189 24.03846697804708 -0.016072390140816722 -0.0009914625900295285 28.882788098394776 0.02076799371952596 -0.02088736311857035 28.885034534201207 -0.03364216703508289 -0.019920346715896962 5.312947943931412 1.2371807406264574 12.78820048255868 -67.44886386639217 30.490281704869286 -9.452898400050533 -9.822473163218612 -0.9027744479451757 -68.5173903771366 -9.306385757699585 0.2438889712349086 1.487510579580168 -0.5162412142199826 0.05153002496334683 -8.087785794890275 -0.032396513398356246 0.01788099031477288 44.52810043053958 -0.00623889114651704 0.015607852629403465 44.52226142231106 12.46785059404245 0.0035152868636333144 -0.03641480362664469 -0.03441092369926985 -0.03754752186688077 -0.02135340402771113 -0.0004809939063112826 0.019066040587443826 -0.04087924500524605 11.151865863920236 -0.020690291388316503 0.010491320008609323 0.011838469014419895 -0.04079511863203403 0.03297217712511146 0.04433508555371513 -0.0033782241259290783 0.041021125589895166 4.745195201837842 0.01356615801699472 0.04399893397676592 0.04698378418504276 0.007416329248098843 -0.00695686141220673 -0.026952227379330097 -0.04088611558005467 0.01888823416634586 -5.644355930556827 -0.02019311867548922 0.02634463427847475 -6.719911884423455 -0.006851970766036639 -0.00803574066926584 -6.768484046067534 0.007417771920586712 0.018995361536244117 -0.016750194953826507 -0.03222010840371734 0.03530273742282963 8.003152739783218 3.4619728685317095 -19.227829734939395 0.028349199984290998 10.382336533289932 -0.03240550565547126 -5.6474233774869464 -15.638411529059223 3.146081739317918 0.011897097463820032 0.040713574263582096 0.014323646280372138 0.006810412038534465 4.650651852632703 0.03219831040473422 12.438978960126617 -8.227691076063106 6.849342641533839 -0.03232378952153067 46.36515378631042 0.04136447824340429 -4.281371946335477 -14.706531523531659 -3.8080022559108153 0.0497498392594648 -0.014066568037402024 0.02923646774133771 -0.009434994642042605 -10.724871363725601 -0.019402975172416043 
-0.04893021804474551 0.020553467878340472 0.023655582506612764 0.042719490768105675 0.011536701597483616 0.010994984920881003 -3.067949998587611 0.9066947485591729 -0.7369188220437016 -1.065498769340197 3.767486692326311 0.3730358439630358 -1.2761815653155435 -1.78606269906379 -0.47510420320630836 -0.17323779394430014 0.448677061736744 -0.7123538344243197 -0.10682123441694531 12.680158429008252 0.13493585938581848 0.095912120342997 -0.29590220453114935 -1.9323947920092401 0.26817532628965274 -15.47264753261644 -0.15639002576160338 -4.664435519784781 1.7534752986996227 -13.855309142307506 67.0529058253498 22.156006690805217 9.491208776242528 0.6133456709731269 1.2756948850218017 71.73246503724306 16.622351853729153 -0.2823359902206879 -2.7240715749669 4.551953363200426 -0.16105053034828118 -1.579833059468077 -0.046019383366740246 0.025918105264533628 -56.25262537249032 0.04424183219982238 0.018456790558540864 -56.25456205918561 -38.75532205325409 -0.02635204929233832 0.03358306766982002 0.04882787775777149 0.011641040029594527 0.03054789641019468 0.04840977878759698 -0.0348941495534098 0.03683927597303495 -36.70180327215053 -0.027433992253212205 -0.03814866535386283 0.0025200607622201114 -0.008704489786471993 0.016109645819082297 0.045988131142034074 -0.04915923630247369 0.03760430116353876 -19.767734863346607 0.00974136330920399 0.020435192227872045 0.03808578481200145 -0.04454914545641337 0.03293254355527425 0.041838925359928385 0.007923039907115889 -0.04728908311396942 24.054530798221297 0.016392380773692934 0.011449718900045876 28.87898415714997 0.0477529610513412 0.043188595319328914 28.867990451735704 -0.025113619145169592 0.007435690258095423 5.336820286704565 1.269842726612198 12.923848472528197 -67.49612778555421 30.13519556013087 -9.118704078756018 -7.851973451838561 -1.8700436600341508 -66.67850486511279 -9.518252687064505 0.5747817683310877 1.327824284984867 -0.5070380445277222 0.11509021029005335 -8.134849817548742 0.014608629076720801 0.013399918811646068 44.58938885602093 -0.004983083194616834 -0.02994732007380543 44.57176962181583 12.499579074466348 -0.0416263314740068 -0.03619741855037413 0.022988968186917064 0.04920028492495372 -0.010317071498772437 -0.027395913674704387 -0.017097494720270313 -0.03553615939605222 11.11449996569146 0.0388245260969851 -0.03046062094829442 -0.036995173998003984 0.036203148060980773 -0.03924957748438641 -0.003079616178852491 0.03546114158918401 0.027574465122901504 4.735833542690585 -0.018116524115989775 -0.0075445776641303265 0.03323252967630501 0.04256146351686131 0.0046825827154412785 0.03201266948238509 -0.04781666916521757 -0.023175761312551193 -5.643588180379237 -0.014149071281224073 0.03788950060563314 -6.741915453128135 -0.03630217534636431 -0.014812606312191686 -6.750781177218787 0.04050183522128568 0.03683744179748951 0.025779180874616777 -0.032176936050506505 -0.032134187621964606 8.072470227896293 3.444196634769457 -19.230349974694843 -0.03843867682994053 10.38511330890322 -0.019791467956238814 -5.652269575909306 -15.67778648244285 3.1823505067498847 0.029375587533966973 0.01014318467166456 0.010762284698536234 -0.04927643147182032 4.704521335131081 -0.044229478940423395 12.46817338559108 -8.208809123369837 6.895218029642196 0.013063583337254926 46.42865751981291 0.007329606890821995 -4.324809209989599 -14.75866751417553 -3.8103122691551725 -0.03117980003108862 0.002354329207704509 -0.02675896521708669 0.016976600332728516 -10.78444405446413 0.015938465507006495 
